<svg width="611" height="445" viewBox="0 0 611 445" fill="none" xmlns="http://www.w3.org/2000/svg">
<g filter="url(#filter0_d_118_99)">
<path d="M180.88 113.882L413.437 108.151M271.918 63.4531L232 109.7M298.897 62.3711L348 109M174 108C205.5 43.4999 386.363 54.7533 411 102.931M179 109C209.671 50.8545 382.849 60.9489 405.973 104.821M405 114C405 108.232 401.86 102.526 395.776 97.2374C389.691 91.9486 380.793 87.1908 369.636 83.2604C358.479 79.33 345.302 76.3113 330.926 74.3925C316.55 72.4737 301.283 71.6958 286.078 72.1075C270.873 72.5192 256.054 74.1115 242.547 76.7852C229.039 79.4589 217.132 83.1568 207.568 87.6482C198.003 92.1396 190.986 97.3283 186.953 102.891C182.921 108.454 181.96 114.271 184.131 119.98L294 114H405ZM183.987 181.581L413.891 176.441C427.695 176.132 438.432 164.698 437.873 150.902L436.904 126.98C436.345 113.184 424.702 102.25 410.898 102.559L180.994 107.699C167.19 108.007 156.453 119.441 157.012 133.237L157.981 157.16C158.54 170.956 170.183 181.889 183.987 181.581ZM178.344 174.07L212.336 173.31C218.962 173.162 224.116 167.674 223.847 161.052L222.471 127.08C222.203 120.458 216.614 115.209 209.988 115.358L175.997 116.118C169.371 116.266 164.217 121.754 164.486 128.376L165.862 162.348C166.13 168.97 171.719 174.218 178.344 174.07ZM246.344 172.07L280.336 171.31C286.962 171.162 292.116 165.674 291.847 159.052L290.471 125.08C290.203 118.458 284.614 113.209 277.988 113.358L243.997 114.118C237.371 114.266 232.217 119.754 232.486 126.376L233.862 160.348C234.13 166.97 239.719 172.218 246.344 172.07ZM314.344 170.07L348.336 169.31C354.962 169.162 360.116 163.674 359.847 157.052L358.471 123.08C358.203 116.458 352.614 111.209 345.988 111.358L311.997 112.118C305.371 112.266 300.217 117.754 300.486 124.376L301.862 158.348C302.13 164.97 307.719 170.218 314.344 170.07ZM382.344 168.07L416.336 167.31C422.962 167.162 428.116 161.674 427.847 155.052L426.471 121.08C426.203 114.458 420.614 109.209 413.988 109.358L379.997 110.118C373.371 110.266 368.217 115.754 368.486 122.376L369.862 156.348C370.13 162.97 375.719 168.218 382.344 168.07Z" stroke="black" stroke-width="8" stroke-linecap="round"/>
<path d="M335.011 431.407L334.956 427.907L335.011 431.407ZM310.865 117.842L310.92 121.341L310.865 117.842ZM282.155 118.294L282.1 114.794L282.155 118.294ZM258.008 432.619L258.063 436.118L258.008 432.619ZM385.444 163.245L382.979 165.729L385.444 163.245ZM393.02 130.083L391.883 126.773L393.02 130.083ZM483.705 220.061L487.027 221.162L483.705 220.061ZM450.684 227.976L453.15 225.491L450.684 227.976ZM516.305 121.704L512.983 120.602L516.305 121.704ZM490.86 96.457L491.998 99.767L490.86 96.457ZM446.849 177.766C446.595 179.682 447.943 181.442 449.859 181.696C451.775 181.95 453.535 180.602 453.788 178.686L446.849 177.766ZM501.673 108.135C503.404 107.275 504.111 105.174 503.251 103.443C502.391 101.712 500.29 101.006 498.559 101.865L501.673 108.135ZM148.556 226.446L150.963 228.987L148.556 226.446ZM116.198 219.122L119.463 217.862L116.198 219.122ZM198.376 141.283L199.823 138.096L198.376 141.283ZM203.854 174.068L201.447 171.527L203.854 174.068ZM106.813 99.7161L105.367 102.903L106.813 99.7161ZM79.9328 125.177L76.6676 126.438L79.9328 125.177ZM92.8357 110.013C90.9586 109.551 89.0627 110.699 88.6012 112.576C88.1397 114.453 89.2873 116.349 91.1644 116.81L92.8357 110.013ZM155.944 172.15C156.608 173.965 158.618 174.899 160.433 174.235C162.249 173.571 163.182 171.561 162.518 169.746L155.944 172.15ZM547.73 258.915C549.616 259.34 551.489 258.156 551.914 256.27C552.339 254.385 551.156 252.511 549.27 252.086L547.73 258.915ZM433.318 277.764C431.807 278.969 431.558 281.171 432.763 282.682C433.968 284.194 436.17 284.442 437.682 283.237L433.318 277.764ZM443.85 300.214C442.587 301.677 442.75 303.888 444.214 305.15C445.677 306.413 447.887 306.25 449.15 304.787L443.85 300.214ZM522.536 283.679C524.292 284.488 526.37 283.72 527.179 281.964C527.988 280.209 527.22 278.13 525.464 277.321L522.536 283.679ZM141.859 300.091C143.566 300.998 145.685 300.348 146.591 298.641C147.498 296.934 146.849 294.815 145.141 293.908L141.859 300.091ZM63.9851 294.138C62.4045 295.251 62.0254 297.434 63.1381 299.015C64.2509 300.595 66.4343 300.974 68.0149 299.862L63.9851 294.138ZM151.805 294.726C153.311 295.938 155.514 295.7 156.726 294.195C157.938 292.689 157.7 290.486 156.195 289.274L151.805 294.726ZM40.441 258.643C38.5328 258.951 37.2362 260.749 37.5449 262.657C37.8536 264.565 39.6508 265.862 41.559 265.553L40.441 258.643ZM282.21 121.793L310.92 121.341L310.809 114.342L282.1 114.794L282.21 121.793ZM334.956 427.907L257.953 429.119L258.063 436.118L335.066 434.906L334.956 427.907ZM476.391 284.229C476.391 362.342 413.06 426.678 334.956 427.907L335.066 434.906C416.992 433.617 483.391 366.165 483.391 284.229H476.391ZM310.92 121.341C402.316 119.903 476.391 192.821 476.391 284.229H483.391C483.391 188.912 406.114 112.842 310.809 114.342L310.92 121.341ZM116.628 290.001C116.628 198.551 190.77 123.232 282.21 121.793L282.1 114.794C186.838 116.293 109.628 194.727 109.628 290.001H116.628ZM109.628 290.001C109.628 371.981 176.094 437.409 258.063 436.118L257.953 429.119C179.892 430.348 116.628 368.072 116.628 290.001H109.628ZM512.983 120.602L480.383 218.96L487.027 221.162L519.627 122.805L512.983 120.602ZM453.15 225.491L387.91 160.76L382.979 165.729L448.219 230.461L453.15 225.491ZM394.158 133.393L491.998 99.767L489.722 93.147L391.883 126.773L394.158 133.393ZM387.91 160.76C379.216 152.135 382.598 137.366 394.158 133.393L391.883 126.773C375.406 132.436 370.612 153.458 382.979 165.729L387.91 160.76ZM480.383 218.96C476.528 230.591 461.832 234.106 453.15 225.491L448.219 230.461C460.598 242.743 481.541 237.715 487.027 221.162L480.383 218.96ZM519.627 122.805C525.745 104.348 508.117 86.825 489.722 93.147L491.998 99.767C504.883 95.3385 517.288 107.613 512.983 120.602L519.627 122.805ZM453.788 178.686C456.456 158.556 460.453 145.049 467.59 134.573C474.7 124.135 485.193 116.321 501.673 108.135L498.559 101.865C481.599 110.29 469.886 118.769 461.805 130.632C453.749 142.457 449.567 157.258 446.849 177.766L453.788 178.686ZM105.367 102.903L196.93 144.47L199.823 138.096L108.26 96.5291L105.367 102.903ZM201.447 171.527L146.149 223.905L150.963 228.987L206.261 176.609L201.447 171.527ZM119.463 217.862L83.1979 123.917L76.6676 126.438L112.933 220.382L119.463 217.862ZM146.149 223.905C137.64 231.964 123.691 228.813 119.463 217.862L112.933 220.382C118.951 235.972 138.832 240.477 150.963 228.987L146.149 223.905ZM196.93 144.47C207.597 149.312 209.966 163.458 201.447 171.527L206.261 176.609C218.381 165.128 215.024 144.997 199.823 138.096L196.93 144.47ZM108.26 96.5291C89.0937 87.8281 69.0936 106.818 76.6676 126.438L83.1979 123.917C77.8653 110.103 91.9464 96.8107 105.367 102.903L108.26 96.5291ZM91.1644 116.81C110.844 121.649 123.807 127.093 133.422 135.335C143.003 143.548 149.615 154.846 155.944 172.15L162.518 169.746C156.006 151.941 148.869 139.356 137.978 130.02C127.12 120.713 112.888 114.943 92.8357 110.013L91.1644 116.81ZM549.27 252.086C525.151 246.648 506.335 244.787 488.35 248.547C470.339 252.313 453.561 261.628 433.318 277.764L437.682 283.237C457.509 267.432 473.284 258.848 489.782 255.399C506.305 251.945 523.955 253.554 547.73 258.915L549.27 252.086ZM449.15 304.787C464.147 287.405 475.335 279.138 486.031 276.539C496.63 273.963 507.521 276.764 522.536 283.679L525.464 277.321C510.158 270.272 497.399 266.572 484.378 269.737C471.455 272.877 459.054 282.593 443.85 300.214L449.15 304.787ZM145.141 293.908C128.048 284.833 114.703 279.795 102.02 279.7C89.1894 279.603 77.5932 284.557 63.9851 294.138L68.0149 299.862C81.0454 290.688 91.2043 286.619 101.967 286.7C112.876 286.782 124.962 291.121 141.859 300.091L145.141 293.908ZM156.195 289.274C136.634 273.527 120.315 263.709 102.421 258.954C84.526 254.199 65.4143 254.603 40.441 258.643L41.559 265.553C66.0966 261.583 84.0919 261.326 100.623 265.719C117.155 270.112 132.58 279.25 151.805 294.726L156.195 289.274Z" fill="white"/>
<path d="M258.008 432.619C177.993 433.879 113.128 370.026 113.128 290.002C113.128 196.639 188.804 119.763 282.155 118.294L310.865 117.842C404.215 116.373 479.891 190.867 479.891 284.229C479.891 364.254 415.026 430.148 335.011 431.407L258.008 432.619Z" fill="#222121"/>
<path d="M490.86 96.4567C506.5 91.0815 521.516 105.981 516.305 121.703L483.705 220.061C479.034 234.153 461.215 238.424 450.684 227.976L385.444 163.245C374.914 152.796 379.002 134.901 393.02 130.083L490.86 96.4567Z" fill="#222121"/>
<path d="M450.319 178.227C455.705 137.588 466.676 121.611 500.116 105.001" stroke="white" stroke-width="5" stroke-linecap="round"/>
<path d="M79.9328 125.178C73.4795 108.461 90.5201 92.3197 106.813 99.7163L198.376 141.283C211.31 147.155 214.174 164.293 203.854 174.068L148.556 226.446C138.236 236.221 121.321 232.393 116.198 219.122L79.9328 125.178Z" fill="#222121"/>
<path d="M92 113.412C131.732 123.181 146.39 135.84 159.231 170.948" stroke="white" stroke-width="5" stroke-linecap="round"/>
<path d="M159 208.457C182.096 196.933 194.912 197.366 217.533 210.167" stroke="white" stroke-width="5" stroke-linecap="round"/>
<rect x="144" y="224" width="83.847" height="40.4256" rx="20.2128" fill="#E89344"/>
<ellipse cx="181.5" cy="243.5" rx="6.5" ry="16.5" fill="black"/>
<path d="M335 200.106C363.251 187.263 378.752 188.402 405.802 204.989" stroke="white" stroke-width="5" stroke-linecap="round"/>
<rect x="324" y="224" width="83.847" height="40.4256" rx="20.2128" fill="#E89344"/>
<ellipse cx="366.5" cy="243.5" rx="6.5" ry="16.5" fill="black"/>
<path d="M548.5 255.501C500.606 244.701 475.57 248.56 435.5 280.501" stroke="#222121" stroke-width="10" stroke-linecap="round"/>
<path d="M446.5 302.501C476.701 267.498 493.679 266.537 524 280.501" stroke="#222121" stroke-width="10" stroke-linecap="round"/>
<g filter="url(#filter1_d_118_99)">
<path d="M477 250C508.704 240.092 524.713 240.767 551 250" stroke="white" stroke-width="4" stroke-linecap="round"/>
</g>
<path d="M478.5 270.5C501.487 266.515 511.897 269.43 528 279" stroke="white" stroke-width="4" stroke-linecap="round"/>
<path d="M143.5 297C109.51 278.954 92.6386 278.245 66 297" stroke="#222121" stroke-width="10" stroke-linecap="round"/>
<path d="M154 292C115.214 260.777 90.5109 254.088 41 262.098" stroke="#222121" stroke-width="10" stroke-linecap="round"/>
<path d="M61 295.5C82.5104 280.411 94.6563 276.49 117.5 282.5" stroke="white" stroke-width="4" stroke-linecap="round"/>
<path d="M38 259.5C72.3428 250.425 110 253.5 119 267.5" stroke="white" stroke-width="4" stroke-linecap="round"/>
<rect width="68.0269" height="138.715" rx="30" transform="matrix(0.999988 -0.00483562 0.00481552 0.999988 240 176.329)" fill="white"/>
<rect width="107.088" height="234.645" rx="53.5438" transform="matrix(0 -1 1 -0.000108863 162 394.113)" fill="white"/>
<path d="M272.5 218L345.679 317H199.321L272.5 218Z" fill="white"/>
<path d="M303.892 250C314.971 279.094 324.967 281.967 345.395 301.132" stroke="white" stroke-width="10" stroke-linecap="round"/>
<path d="M207 301C234 285.5 235.272 275.178 251 252" stroke="white" stroke-width="10" stroke-linecap="round"/>
<path d="M279.966 233.913C276.515 221.854 276.9 215.083 279.85 203M279.966 233.913C276.515 221.854 276.9 215.083 279.85 203" stroke="#222121" stroke-width="8" stroke-linecap="round"/>
<path d="M264 203C267.406 215.072 266.996 221.842 264 233.914M264 203C267.406 215.072 266.996 221.842 264 233.914" stroke="#222121" stroke-width="8" stroke-linecap="round"/>
<line x1="2.5" y1="-2.5" x2="12.5034" y2="-2.5" transform="matrix(0.405541 0.914077 -0.913449 0.406954 259 375.549)" stroke="black" stroke-width="5" stroke-linecap="round"/>
<line x1="2.5" y1="-2.5" x2="13.4622" y2="-2.5" transform="matrix(0.0344498 0.999406 -0.999387 0.0350198 274.029 370)" stroke="black" stroke-width="5" stroke-linecap="round"/>
<line x1="2.5" y1="-2.5" x2="11.8157" y2="-2.5" transform="matrix(-0.459683 0.888083 -0.887299 -0.461194 288.789 372.902)" stroke="black" stroke-width="5" stroke-linecap="round"/>
<rect x="248" y="290" width="48.0002" height="24.9218" rx="12.4609" fill="#D03030"/>
<rect width="36.0281" height="20.3407" rx="10.1704" transform="matrix(0 -1 0.997634 0.0687498 263.326 328.768)" fill="#D03030"/>
<path d="M228.978 352.265L222.603 369.4L219.749 351.338L228.978 352.265Z" fill="white" stroke="black" stroke-width="5"/>
<path d="M245.646 352.362L242.511 362.712L237.413 353.179L245.646 352.362Z" fill="white" stroke="black" stroke-width="5"/>
<path d="M309.168 349.216L302.82 357.964L301.122 347.283L309.168 349.216ZM309.607 348.611L309.607 348.612L309.607 348.611Z" fill="white" stroke="black" stroke-width="5"/>
<path d="M328.132 348.822L325.078 364.812L319.078 349.682L328.132 348.822Z" fill="white" stroke="black" stroke-width="5"/>
<path d="M354.084 333.288C327.721 354.079 310.35 353.146 275.165 330.959" stroke="#222121" stroke-width="5" stroke-linecap="round"/>
<path d="M274.31 330.384C251.521 354.87 234.218 356.66 196 340.392" stroke="#222121" stroke-width="5" stroke-linecap="round"/>
<ellipse cx="306.883" cy="324.563" rx="3.95505" ry="3.9633" fill="#222121"/>
<ellipse cx="229.364" cy="316.636" rx="3.95505" ry="3.9633" fill="#222121"/>
<ellipse cx="235.692" cy="335.66" rx="3.95505" ry="3.9633" fill="#222121"/>
<ellipse cx="217.499" cy="330.112" rx="3.95505" ry="3.9633" fill="#222121"/>
<ellipse cx="328.24" cy="321.392" rx="3.95505" ry="3.9633" fill="#222121"/>
<ellipse cx="320.955" cy="336.963" rx="3.95505" ry="3.9633" fill="#222121"/>
<path d="M143 307.601L162 309" stroke="white" stroke-width="5" stroke-linecap="round"/>
<path d="M266 422.436L301.298 418.966" stroke="white" stroke-width="5" stroke-linecap="round"/>
<path d="M412 299C435.986 298.746 444.359 294.518 452.5 281.5" stroke="white" stroke-width="5" stroke-linecap="round"/>
<path d="M409 385.5C427.169 376.259 434.694 369.276 441 352" stroke="white" stroke-width="5" stroke-linecap="round"/>
</g>
<path d="M405 114C405 108.232 401.86 102.526 395.776 97.237C389.692 91.9482 380.793 87.1904 369.636 83.26C358.479 79.3296 345.302 76.3109 330.926 74.3921C316.55 72.4733 301.283 71.6954 286.078 72.1071C270.873 72.5188 256.054 74.1111 242.547 76.7848C229.04 79.4585 217.132 83.1564 207.568 87.6478C198.003 92.1392 190.986 97.3279 186.954 102.891C182.921 108.453 181.96 114.27 184.131 119.98L294 114H405Z" fill="#D03030"/>
<line y1="-4" x2="232.628" y2="-4" transform="matrix(0.999696 -0.0246352 0.0300332 0.999549 181 117.88)" stroke="black" stroke-width="8"/>
<path d="M271.918 63.4531L232 109.7" stroke="black" stroke-width="5" stroke-linecap="round"/>
<path d="M298.897 62.3711L348 109" stroke="black" stroke-width="5" stroke-linecap="round"/>
<rect width="279.962" height="73.9426" rx="25" transform="matrix(0.99975 -0.0223518 0.0404741 0.999181 156 108.258)" fill="black"/>
<rect width="58" height="58" rx="12" transform="matrix(0.99975 -0.0223518 0.0404741 0.999181 164 116.386)" fill="#D03030"/>
<rect width="58" height="58" rx="12" transform="matrix(0.99975 -0.0223518 0.0404741 0.999181 232 114.386)" fill="#D03030"/>
<rect width="58" height="58" rx="12" transform="matrix(0.99975 -0.0223518 0.0404741 0.999181 300 112.386)" fill="#D03030"/>
<rect width="58" height="58" rx="12" transform="matrix(0.99975 -0.0223518 0.0404741 0.999181 368 110.386)" fill="#D03030"/>
<path d="M174 108C205.5 43.5 386.363 54.7534 411 102.931" stroke="white" stroke-width="5" stroke-linecap="round"/>
<path d="M179 109C209.671 50.8545 382.849 60.9489 405.973 104.821" stroke="black" stroke-width="8" stroke-linecap="round"/>
<defs>
<filter id="filter0_d_118_99" x="31.9992" y="58.3711" width="525.502" height="385.766" filterUnits="userSpaceOnUse" color-interpolation-filters="sRGB">
<feFlood flood-opacity="0" result="BackgroundImageFix"/>
<feColorMatrix in="SourceAlpha" type="matrix" values="0 0 0 0 0 0 0 0 0 0 0 0 0 0 0 0 0 0 127 0" result="hardAlpha"/>
<feOffset dy="4"/>
<feGaussianBlur stdDeviation="2"/>
<feComposite in2="hardAlpha" operator="out"/>
<feColorMatrix type="matrix" values="0 0 0 0 0 0 0 0 0 0 0 0 0 0 0 0 0 0 0.25 0"/>
<feBlend mode="normal" in2="BackgroundImageFix" result="effect1_dropShadow_118_99"/>
<feBlend mode="normal" in="SourceGraphic" in2="effect1_dropShadow_118_99" result="shape"/>
</filter>
<filter id="filter1_d_118_99" x="470.999" y="240.82" width="86.0011" height="19.1807" filterUnits="userSpaceOnUse" color-interpolation-filters="sRGB">
<feFlood flood-opacity="0" result="BackgroundImageFix"/>
<feColorMatrix in="SourceAlpha" type="matrix" values="0 0 0 0 0 0 0 0 0 0 0 0 0 0 0 0 0 0 127 0" result="hardAlpha"/>
<feOffset dy="4"/>
<feGaussianBlur stdDeviation="2"/>
<feComposite in2="hardAlpha" operator="out"/>
<feColorMatrix type="matrix" values="0 0 0 0 0 0 0 0 0 0 0 0 0 0 0 0 0 0 0.25 0"/>
<feBlend mode="normal" in2="BackgroundImageFix" result="effect1_dropShadow_118_99"/>
<feBlend mode="normal" in="SourceGraphic" in2="effect1_dropShadow_118_99" result="shape"/>
</filter>
</defs>
</svg>
